<?xml version="1.0" standalone="no"?><!DOCTYPE svg PUBLIC "-//W3C//DTD SVG 1.1//EN" "http://www.w3.org/Graphics/SVG/1.1/DTD/svg11.dtd"><svg t="1683791093433" class="icon" viewBox="0 0 1024 1024" version="1.1" xmlns="http://www.w3.org/2000/svg" p-id="1140" width="16" height="16" xmlns:xlink="http://www.w3.org/1999/xlink"><path d="M76.65396022 732.93634242c17.27715983 11.06235414 39.71260838 10.13013328 66.6848651-2.79666255 15.5991623-7.51991489 33.87069103-19.45234182 54.31740177-35.54868858 15.7234584-12.36746333 30.32825179-25.35640723 41.51490203-35.67298468 15.47486617 13.85901669 39.02897976 32.68987795 70.16515629 51.39644309A494.41113281 494.41113281 0 0 0 419.83553065 759.41141468c48.35118831 14.79123755 99.25044694 22.31115244 151.26837059 22.24900439 59.04065409 0 117.27338345-10.87590997 173.14448663-32.31698961 47.41896744-18.20938069 92.04127233-43.56578791 132.62395352-75.32344502 70.66234074-55.1253265 120.07004602-123.55033719 120.07004601-166.18390426 0-44.00082431-46.79748687-112.55013112-113.79309226-166.74323677-39.21542393-31.7576571-83.02980408-57.05191627-130.13803123-75.1991489-55.31177068-21.25463547-113.91738837-32.13054544-174.2010036-32.13054543-53.94451343 0-106.27317737 7.45776683-155.49443846 22.12470826-39.52616421 11.80813082-77.12573867 28.2773659-111.68005833 49.03481694-31.63336098 18.95515737-55.18747456 38.03461085-70.41374851 52.01792365-11.62168665-9.63294883-26.97225671-21.75181993-43.37934375-33.55995074-57.17621239-40.89342146-92.47630873-52.32866394-118.14345625-38.09675891-5.65547318 3.1695509-10.31657745 6.71199015-14.04546086 10.44087357-11.93242693 11.93242693-14.97768173 25.91573975-15.1641259 36.7916497-0.24859223 13.92116476 3.91532759 28.2773659 9.26006048 46.42459855 8.82502408 30.32825179 20.88174713 71.71885771 20.88174714 136.60142914 0 68.11427041-12.36746333 108.19976713-20.50885879 134.73698744-4.66110428 15.22627395-8.38998769 27.15870088-8.32783962 39.40186811 0.06214806 12.61605556 4.41251205 30.26610373 24.85922277 43.25504764zM916.46065366 462.03296222c16.90427149 24.85922278 21.31678353 40.83127341 21.31678352 45.80311796 0 3.35599508-4.22606787 18.76871319-22.87048494 44.37371265-18.58226902 25.54285141-45.05734129 52.390812-74.63981638 75.50988919-35.92157691 28.09092173-75.50988918 50.52637029-117.39767957 66.6848651-3.97747565 1.49155336-7.89280323 2.92095867-11.87027888 4.28821593-10.37872552-22.93263302-42.26067872-101.05274059-42.26067871-192.90756874 0-90.98475536 39.09112782-167.61330957 51.14785086-188.99224116 3.97747565 1.36725726 7.89280323 2.79666257 11.80813081 4.35036399 41.26630981 15.90990258 79.73595706 38.0967589 114.16598061 65.93908841 36.10802108 29.14743871 58.35702547 56.86547211 70.60019268 74.95055667z m-799.84549282 205.71006848c8.70072798-28.09092173 23.18122524-75.13700084 23.18122523-152.20059146 0-73.33470719-13.98331282-121.37515521-23.30552134-153.19496035-2.17518199-7.27132267-4.53680815-15.7234584-5.90406541-21.81396799 9.07361632 3.23169896 27.40729311 12.1188711 60.22146717 36.35661331 28.2773659 20.94389519 52.20436783 42.13638261 52.39081201 42.32282678l22.87048494 20.6331549 19.51448988-23.74055775c1.11866503-1.24296113 27.59373727-31.81980516 78.67944009-61.89946471 30.26610373-17.83649234 63.14242585-32.06839738 97.69674551-42.26067872 43.19289957-12.74035167 89.24460977-19.14160154 136.85002139-19.14160153 27.96662562 0 55.49821485 2.67236645 82.47047156 7.89280323-18.52012097 36.04587303-51.64503533 113.17161169-51.64503532 204.90214372-0.06214806 94.27860238 29.08529064 174.51174389 43.69008403 208.87961938-27.09655282 5.46902901-54.565994 8.20354352-82.28402739 8.20354351-45.61667379 0-90.11468257-6.46339792-132.43750934-19.20374959-33.87069103-10.25442939-66.49842093-24.61063055-96.82667271-42.50927095-52.08007171-30.82543625-79.86025316-62.210205-80.1088454-62.45879722l-20.94389518-24.17559415-22.43544856 22.8083369c-0.24859223 0.24859223-22.62189273 22.87048495-49.6562975 45.05734128-28.40166203 23.30552135-45.86526602 32.81417407-55.24962262 36.72950165 0.99436891-3.72888342 2.17518199-7.644211 3.23169896-11.18665024z" fill="#1296db" p-id="1141"></path><path d="M771.09634847 569.23836044m29.39603094-29.39603093a41.57226563 41.57226563 0 1 0-58.79206186 58.79206187 41.57226563 41.57226563 0 1 0 58.79206186-58.79206187Z" fill="#1296db" p-id="1142"></path></svg>